<?xml version="1.0" encoding="UTF-8" standalone="no"?>
<!DOCTYPE svg PUBLIC "-//W3C//DTD SVG 20010904//EN"
              "http://www.w3.org/TR/2001/REC-SVG-20010904/DTD/svg10.dtd">
<svg xmlns="http://www.w3.org/2000/svg"
     width="3.36069in" height="6.22144in"
     viewBox="0 0 242 448">
  <path fill="#999900" stroke="black" stroke-width="3"
        d="M 60.02,177.00
           C 69.72,155.13 61.00,143.54 54.42,123.00
             47.84,102.45 40.25,76.58 45.71,55.00
             46.83,50.55 48.94,46.17 50.83,42.00
             54.64,33.56 59.89,25.50 67.00,19.44
             76.93,10.98 93.00,3.14 106.00,1.04
             138.09,-4.14 174.58,8.97 190.02,39.00
             195.47,49.60 198.13,63.13 198.00,75.00
             197.77,94.89 190.07,113.29 184.43,132.00
             182.10,139.73 177.04,150.76 177.50,159.00
             178.17,170.86 183.37,180.58 188.57,191.00
             188.57,191.00 217.63,244.00 217.63,244.00
             231.00,270.88 238.00,302.19 240.09,332.00
             240.09,332.00 241.20,342.00 241.20,342.00
             241.20,342.00 241.20,360.00 241.20,360.00
             241.10,375.74 239.10,395.73 235.57,411.00
             235.57,411.00 231.77,425.00 231.77,425.00
             230.53,430.22 226.48,444.26 221.89,446.83
             219.42,448.21 215.78,448.00 213.00,448.00
             213.00,448.00 28.00,448.00 28.00,448.00
             25.24,447.99 21.65,448.22 19.25,446.69
             15.76,444.45 11.08,428.52 9.88,424.00
             9.88,424.00 6.59,413.00 6.59,413.00
             3.36,399.91 0.22,372.43 0.40,359.00
             0.40,359.00 1.00,350.00 1.00,350.00
             1.40,314.28 8.02,278.52 23.32,246.00
             23.32,246.00 37.56,219.43 37.56,219.43
             37.56,219.43 47.24,203.00 47.24,203.00
             49.38,198.78 54.85,190.17 55.00,186.00
             57.66,182.99 58.43,180.60 60.02,177.00 Z" />
</svg>
