<?xml version="1.0" encoding="UTF-8" standalone="no"?>
<!DOCTYPE svg PUBLIC "-//W3C//DTD SVG 20010904//EN"
        "http://www.w3.org/TR/2001/REC-SVG-20010904/DTD/svg10.dtd">
<svg xmlns="http://www.w3.org/2000/svg"
     width="3.33333in" height="3.33333in"
     viewBox="0 0 240 240">
    <path fill="#ffffff" stroke="none" stroke-width="0"
          d="M 92.00,3.14
           C 92.00,3.14 195.00,3.14 195.00,3.14
             199.95,3.01 207.34,3.58 212.00,5.09
             230.20,10.98 236.97,26.07 237.00,44.00
             237.00,44.00 237.00,196.00 237.00,196.00
             236.96,218.45 224.91,235.96 201.00,236.00
             201.00,236.00 39.00,236.00 39.00,236.00
             13.91,235.96 3.04,216.81 3.00,194.00
             3.00,194.00 3.00,45.00 3.00,45.00
             3.04,21.43 13.06,7.04 37.00,3.14
             37.00,3.14 92.00,3.14 92.00,3.14 Z"/>
    <path fill="#000000" stroke="none" stroke-width="0"
          d="M 48.00,0.00
           C 48.00,0.00 87.00,0.00 87.00,0.00
             87.00,0.00 206.00,0.00 206.00,0.00
             224.94,0.03 239.97,15.07 240.00,34.00
             240.00,34.00 240.00,206.00 240.00,206.00
             239.97,225.58 224.29,239.97 205.00,240.00
             205.00,240.00 35.00,240.00 35.00,240.00
             31.71,239.99 29.24,240.10 26.00,239.24
             15.19,236.38 3.07,225.00 0.53,214.00
             -0.08,211.38 0.00,208.67 0.00,206.00
             0.00,206.00 0.00,55.00 0.00,55.00
             0.00,55.00 0.00,32.00 0.00,32.00
             0.18,17.32 12.35,4.57 26.00,0.53
             31.71,-0.41 41.82,0.00 48.00,0.00 Z
           M 22.00,9.35
           C 2.47,20.21 5.00,38.23 5.00,57.00
             5.00,57.00 5.00,99.00 5.00,99.00
             5.00,99.00 5.00,199.00 5.00,199.00
             5.03,220.75 19.24,234.97 41.00,235.00
             41.00,235.00 199.00,235.00 199.00,235.00
             220.32,234.97 234.97,221.67 235.00,200.00
             235.00,200.00 235.00,40.00 235.00,40.00
             234.97,19.12 220.90,5.03 200.00,5.11
             200.00,5.11 90.00,5.11 90.00,5.11
             90.00,5.11 33.00,5.11 33.00,5.11
             29.15,6.19 25.46,7.42 22.00,9.35 Z
           M 54.00,25.31
           C 85.13,27.77 86.39,72.73 57.00,77.68
             31.07,82.04 15.01,50.21 34.09,32.19
             38.55,27.98 43.17,26.56 49.00,25.31
             50.90,25.21 52.04,25.02 54.00,25.31 Z
           M 206.79,169.04
           C 219.61,183.31 213.25,208.03 194.00,212.47
             190.80,213.21 183.20,213.21 180.00,212.47
             156.51,207.04 152.65,169.68 180.00,161.53
             189.92,159.91 199.72,161.17 206.79,169.04 Z"/>
</svg>
