<?xml version="1.0" encoding="UTF-8" standalone="no"?>
<!DOCTYPE svg PUBLIC "-//W3C//DTD SVG 20010904//EN"
        "http://www.w3.org/TR/2001/REC-SVG-20010904/DTD/svg10.dtd">
<svg xmlns="http://www.w3.org/2000/svg"
     width="3.33333in" height="3.33333in"
     viewBox="0 0 240 240">
    <path fill="#ffffff" stroke="none" stroke-width="0"
          d="M 92.00,3.14
           C 92.00,3.14 195.00,3.14 195.00,3.14
             199.95,3.01 207.34,3.58 212.00,5.09
             230.20,10.98 236.97,26.07 237.00,44.00
             237.00,44.00 237.00,196.00 237.00,196.00
             236.96,218.45 224.91,235.96 201.00,236.00
             201.00,236.00 39.00,236.00 39.00,236.00
             13.91,235.96 3.04,216.81 3.00,194.00
             3.00,194.00 3.00,45.00 3.00,45.00
             3.04,21.43 13.06,7.04 37.00,3.14
             37.00,3.14 92.00,3.14 92.00,3.14 Z"/>
    <path fill="#000000" stroke="none" stroke-width="0"
          d="M 48.00,0.00
           C 48.00,0.00 87.00,0.00 87.00,0.00
             87.00,0.00 206.00,0.00 206.00,0.00
             224.94,0.03 239.97,15.07 240.00,34.00
             240.00,34.00 240.00,206.00 240.00,206.00
             239.97,225.58 224.29,239.97 205.00,240.00
             205.00,240.00 35.00,240.00 35.00,240.00
             31.71,239.99 29.24,240.10 26.00,239.24
             15.19,236.38 3.07,225.00 0.53,214.00
             -0.08,211.38 0.00,208.67 0.00,206.00
             0.00,206.00 0.00,55.00 0.00,55.00
             0.00,55.00 0.00,32.00 0.00,32.00
             0.18,17.32 12.35,4.57 26.00,0.53
             31.71,-0.41 41.82,0.00 48.00,0.00 Z
           M 22.00,9.35
           C 2.47,20.21 5.00,38.23 5.00,57.00
             5.00,57.00 5.00,99.00 5.00,99.00
             5.00,99.00 5.00,199.00 5.00,199.00
             5.03,220.75 19.24,234.97 41.00,235.00
             41.00,235.00 199.00,235.00 199.00,235.00
             220.32,234.97 234.97,221.67 235.00,200.00
             235.00,200.00 235.00,40.00 235.00,40.00
             234.97,19.12 220.90,5.03 200.00,5.11
             200.00,5.11 90.00,5.11 90.00,5.11
             90.00,5.11 33.00,5.11 33.00,5.11
             29.15,6.19 25.46,7.42 22.00,9.35 Z
           M 211.60,40.00
           C 218.94,55.27 209.81,74.36 193.00,77.53
             167.90,82.28 150.67,51.93 168.33,33.18
             172.21,29.06 177.59,26.75 183.00,25.47
             194.98,23.80 206.21,28.79 211.60,40.00 Z
           M 123.00,92.28
           C 126.91,92.20 130.54,93.05 134.00,94.91
             159.53,108.67 147.47,146.91 120.00,144.82
             98.80,143.20 87.60,119.01 100.55,102.01
             104.73,96.54 109.56,94.25 116.00,92.28
             118.73,92.08 120.20,91.93 123.00,92.28 Z
           M 64.00,210.62
           C 59.41,212.92 56.02,213.11 51.00,212.99
             31.95,212.52 20.26,191.79 28.66,175.00
             33.41,165.49 40.00,162.26 50.00,160.45
             79.03,157.96 90.31,197.47 64.00,210.62 Z"/>
</svg>
